<?xml version="1.0" encoding="UTF-8" standalone="no"?><!DOCTYPE svg PUBLIC "-//W3C//DTD SVG 1.1//EN" "http://www.w3.org/Graphics/SVG/1.1/DTD/svg11.dtd"><svg width="100%" height="100%" viewBox="0 0 582 257" version="1.1" xmlns="http://www.w3.org/2000/svg" xmlns:xlink="http://www.w3.org/1999/xlink" xml:space="preserve" xmlns:serif="http://www.serif.com/" style="fill-rule:evenodd;clip-rule:evenodd;stroke-linecap:round;stroke-linejoin:round;stroke-miterlimit:1.5;"><path d="M150.213,239.19l-5.222,-0.039c0,0 -43.12,-4.197 -52.188,-1.43c-9.067,2.766 -27.581,3.575 -32.945,1.332c-5.365,-2.242 -12.184,-8.168 -10.095,-11.615c2.089,-3.448 3.703,-5.01 15.555,-3.139c11.852,1.87 19.654,-0.486 22.028,-6.45c2.374,-5.963 -6.123,-11.692 -13.94,-12.273c-7.817,-0.582 -27.612,3.633 -36.988,-1.921c-9.376,-5.554 -14.375,-19.86 -13.568,-25.835c0.808,-5.975 2.027,-11.738 8.198,-8.544c6.171,3.193 28.292,14.372 30.792,14.6c2.501,0.228 5.476,-4.892 1.584,-10.901c-3.893,-6.009 -12.38,-15.462 -26.435,-25.664c-14.056,-10.203 -26.129,-18.58 -31.318,-33.518c-5.189,-14.938 -8.479,-23.566 -2.355,-29.187c6.124,-5.622 19.715,18.191 23.085,24.197c3.37,6.005 14.129,26.755 23.654,36.478c9.525,9.723 13.75,11.643 15.158,9.974c1.409,-1.668 -0.172,-15.006 -6.469,-27.853c-6.297,-12.848 -10.347,-20.537 -6.912,-33.943c3.435,-13.405 13.168,-24.351 22.249,-3.404c9.081,20.947 5.307,51.491 7.342,62.4c2.035,10.908 4.296,25.929 8.205,27.952c3.908,2.022 7.089,3.934 10.144,-14.197c3.056,-18.13 3.185,-53.489 7.886,-67.306c4.701,-13.816 7.566,-15.264 8.8,-14.625c1.234,0.638 15.111,15.01 9.633,40.677c-5.477,25.668 -11.905,62.031 -13.266,65.588c-1.361,3.558 10.681,2.597 13.736,-5.146c3.054,-7.742 11.253,-23.211 17.867,-27.78c6.615,-4.568 11.964,-5.264 11.964,-5.264c0,0 7.69,4.778 6.169,27.432c-1.521,22.653 -12.348,59.404 -12.348,59.404" style="fill:#5181b8;fill-rule:nonzero;"/><g><path d="M485.891,33.75c0,-17.259 -13.991,-31.25 -31.25,-31.25c-73.878,0 -258.623,0 -332.5,0c-17.259,0 -31.25,13.991 -31.25,31.25c0,44.469 0,125.531 0,170c0,17.259 13.991,31.25 31.25,31.25c73.877,0 258.622,0 332.5,0c17.259,0 31.25,-13.991 31.25,-31.25c0,-44.469 0,-125.531 0,-170Z" style="fill:#fff;"/><clipPath id="_clip1"><path d="M485.891,33.75c0,-17.259 -13.991,-31.25 -31.25,-31.25c-73.878,0 -258.623,0 -332.5,0c-17.259,0 -31.25,13.991 -31.25,31.25c0,44.469 0,125.531 0,170c0,17.259 13.991,31.25 31.25,31.25c73.877,0 258.622,0 332.5,0c17.259,0 31.25,-13.991 31.25,-31.25c0,-44.469 0,-125.531 0,-170Z"/></clipPath><g clip-path="url(#_clip1)"><g transform="matrix(0.973355,-0.229304,0.229304,0.973355,-12.0334,-13.2843)"><text x="87.736px" y="133.284px" style="font-family:'TTCommons-Medium', 'TT Commons';font-weight:500;font-size:52.2px;fill:#4680c2;fill-opacity:0.2;">wow!</text></g><g transform="matrix(0.977833,-0.209386,0.209386,0.977833,-32.3124,42.8314)"><text x="337.048px" y="262.172px" style="font-family:'TTCommons-Medium', 'TT Commons';font-weight:500;font-size:52.2px;fill:#4680c2;fill-opacity:0.2;">omg!</text></g><g transform="matrix(0.942874,0.33315,-0.33315,0.942874,5.1077,-105.019)"><text x="418.609px" y="26.534px" style="font-family:'TTCommons-Medium', 'TT Commons';font-weight:500;font-size:37.989px;fill:#4680c2;fill-opacity:0.2;">cool!</text></g></g><path d="M485.891,33.75c0,-17.259 -13.991,-31.25 -31.25,-31.25c-73.878,0 -258.623,0 -332.5,0c-17.259,0 -31.25,13.991 -31.25,31.25c0,44.469 0,125.531 0,170c0,17.259 13.991,31.25 31.25,31.25c73.877,0 258.622,0 332.5,0c17.259,0 31.25,-13.991 31.25,-31.25c0,-44.469 0,-125.531 0,-170Z" style="fill:none;stroke:#5181b8;stroke-width:5px;"/><text x="225.406px" y="63.62px" style="font-family:'TTCommons-Medium', 'TT Commons';font-weight:500;font-size:29.677px;fill:#4680c2;">Р<tspan x="241.129px 255.663px " y="63.62px 63.62px ">ез</tspan>уль<tspan x="307.888px 319.612px 333.117px " y="63.62px 63.62px 63.62px ">тат</tspan>:</text><g><path d="M454.849,15.211c0.235,-0.236 0.555,-0.368 0.889,-0.368c0.334,0 0.654,0.132 0.89,0.368c0.835,0.836 1.957,1.958 1.957,1.958c0,0 1.122,-1.122 1.958,-1.958c0.236,-0.236 0.556,-0.368 0.889,-0.368c0.334,0 0.654,0.132 0.89,0.368c0,0 0,0.001 0,0.001c0.236,0.236 0.369,0.556 0.369,0.889c0,0.334 -0.133,0.654 -0.369,0.89c-0.835,0.835 -1.957,1.957 -1.957,1.957c0,0 1.122,1.123 1.957,1.958c0.236,0.236 0.369,0.556 0.369,0.89c0,0.333 -0.133,0.653 -0.369,0.889c0,0 0,0 0,0.001c-0.236,0.236 -0.556,0.368 -0.89,0.368c-0.333,0 -0.653,-0.132 -0.889,-0.368c-0.836,-0.836 -1.958,-1.958 -1.958,-1.958c0,0 -1.122,1.122 -1.957,1.958c-0.236,0.236 -0.556,0.368 -0.89,0.368c-0.334,0 -0.654,-0.132 -0.889,-0.368c-0.001,-0.001 -0.001,-0.001 -0.001,-0.001c-0.236,-0.236 -0.369,-0.556 -0.369,-0.889c0,-0.334 0.133,-0.654 0.369,-0.89c0.835,-0.835 1.957,-1.958 1.957,-1.958c0,0 -1.122,-1.122 -1.957,-1.957c-0.236,-0.236 -0.369,-0.556 -0.369,-0.89c0,-0.333 0.133,-0.653 0.369,-0.889c0,0 0,-0.001 0.001,-0.001Z" style="fill:#5181b8;"/><path d="M449.577,14.23c0.386,0 0.756,0.154 1.029,0.427c0.273,0.273 0.427,0.643 0.427,1.029l0,5.934c0,0.386 -0.154,0.757 -0.427,1.03c-0.273,0.273 -0.643,0.426 -1.029,0.426l-5.934,0c-0.386,0 -0.757,-0.153 -1.03,-0.426c-0.273,-0.273 -0.426,-0.644 -0.426,-1.03l0,-5.934c0,-0.386 0.153,-0.756 0.426,-1.029c0.273,-0.273 0.644,-0.427 1.03,-0.427l5.934,0Zm0.195,3.673c0,-0.804 -0.652,-1.456 -1.456,-1.456c-1.024,0 -2.389,0 -3.413,0c-0.804,0 -1.456,0.652 -1.456,1.456c0,0.763 0,1.694 0,2.457c0,0.804 0.652,1.456 1.456,1.456c1.024,0 2.389,0 3.413,0c0.804,0 1.456,-0.652 1.456,-1.456c0,-0.763 0,-1.694 0,-2.457Z" style="fill:#5181b8;"/><path d="M439.413,22.134c0,-0.52 -0.422,-0.941 -0.941,-0.941c-1.43,0 -4.136,0 -5.566,0c-0.52,0 -0.941,0.421 -0.941,0.941c0,0 0,0.001 0,0.001c0,0.52 0.421,0.941 0.941,0.941c1.43,0 4.136,0 5.566,0c0.519,0 0.941,-0.421 0.941,-0.941c0,0 0,-0.001 0,-0.001Z" style="fill:#5181b8;"/></g></g><path d="M482.813,256.749l4.853,-1.93c0,0 38.658,-19.557 48.112,-20.269c9.453,-0.712 26.999,-6.676 31.184,-10.712c4.185,-4.036 8.39,-12.032 5.192,-14.487c-3.197,-2.454 -5.269,-3.324 -15.634,2.719c-10.366,6.044 -18.491,6.678 -22.867,1.983c-4.376,-4.696 1.464,-13.117 8.537,-16.495c7.073,-3.379 27.049,-6.633 33.771,-15.21c6.721,-8.577 6.189,-23.723 3.268,-28.998c-2.92,-5.275 -6.146,-10.202 -10.739,-4.988c-4.592,5.215 -21.149,23.659 -23.396,24.778c-2.247,1.12 -6.877,-2.571 -5.431,-9.583c1.447,-7.012 5.926,-18.9 15.322,-33.507c9.396,-14.607 17.607,-26.794 17.022,-42.597c-0.585,-15.802 -0.649,-25.037 -8.395,-28.053c-7.747,-3.016 -11.771,24.106 -12.733,30.925c-0.961,6.819 -3.458,30.058 -8.806,42.575c-5.348,12.516 -8.589,15.838 -10.507,14.794c-1.918,-1.044 -5.283,-14.046 -4.077,-28.303c1.206,-14.256 2.191,-22.891 -5.875,-34.137c-8.064,-11.246 -21.106,-17.915 -21.968,4.9c-0.861,22.814 13.737,49.908 15.799,60.811c2.062,10.904 5.405,25.722 2.496,29.025c-2.908,3.302 -5.178,6.238 -14.604,-9.548c-9.425,-15.786 -22.376,-48.689 -31.769,-59.859c-9.394,-11.168 -12.588,-11.479 -13.507,-10.436c-0.918,1.043 -8.635,19.47 5.782,41.401c14.418,21.931 33.601,53.484 36.16,56.305c2.56,2.821 -9.011,6.295 -14.666,0.189c-5.656,-6.107 -18.909,-17.547 -26.73,-19.405c-7.822,-1.856 -13.058,-0.564 -13.058,-0.564c0,0 -5.433,7.243 4.204,27.8c9.637,20.558 33.06,50.876 33.06,50.876" style="fill:#5181b8;fill-rule:nonzero;"/><g><g><path d="M232.218,85.001c0,-3.677 -2.981,-6.659 -6.659,-6.659c-16.522,0 -59.252,0 -75.774,0c-3.677,0 -6.659,2.982 -6.659,6.659c0,18.334 0,69.404 0,87.737c0,3.678 2.982,6.659 6.659,6.659c16.522,0 59.252,0 75.774,0c3.678,0 6.659,-2.981 6.659,-6.659c0,-18.333 0,-69.403 0,-87.737Z" style="fill:#4680c2;"/><path d="M225.545,90.691c0,-1.766 -0.701,-3.46 -1.95,-4.709c-1.249,-1.249 -2.942,-1.95 -4.709,-1.95c-14.354,0 -48.073,0 -62.428,0c-1.766,0 -3.46,0.701 -4.709,1.95c-1.248,1.249 -1.95,2.943 -1.95,4.709c0,16.613 0,59.745 0,76.358c0,1.766 0.702,3.46 1.95,4.709c1.249,1.248 2.943,1.95 4.709,1.95c14.355,0 48.074,0 62.428,0c1.767,0 3.46,-0.702 4.709,-1.95c1.249,-1.249 1.95,-2.943 1.95,-4.709c0,-16.613 0,-59.745 0,-76.358Z" style="fill:#fff;"/><clipPath id="_clip2"><path d="M225.545,90.691c0,-1.766 -0.701,-3.46 -1.95,-4.709c-1.249,-1.249 -2.942,-1.95 -4.709,-1.95c-14.354,0 -48.073,0 -62.428,0c-1.766,0 -3.46,0.701 -4.709,1.95c-1.248,1.249 -1.95,2.943 -1.95,4.709c0,16.613 0,59.745 0,76.358c0,1.766 0.702,3.46 1.95,4.709c1.249,1.248 2.943,1.95 4.709,1.95c14.355,0 48.074,0 62.428,0c1.767,0 3.46,-0.702 4.709,-1.95c1.249,-1.249 1.95,-2.943 1.95,-4.709c0,-16.613 0,-59.745 0,-76.358Z"/></clipPath><g clip-path="url(#_clip2)"><path id="Hail" d="M178.135,136.048l0,59.107c0,2.799 2.273,5.065 5.077,5.065c2.824,0 5.078,-2.267 5.078,-5.065l0,-33.017l2.539,0l0,33.017c0,2.799 2.273,5.065 5.078,5.065c2.823,0 5.077,-2.267 5.077,-5.065l0,-36.825l0,-21.606l2.502,0c1.645,0 2.514,2.218 2.64,2.564l-0.064,0l0,19.077c0,2.056 1.705,3.773 3.808,3.773c2.118,0 3.808,-1.689 3.808,-3.773l0,-19.077l-0.048,0c-0.083,-0.954 -0.638,-5.801 -3.678,-10.485c-2.01,-3.097 -6.028,-4.231 -8.968,-4.64l0,-0.108l-0.893,0c-1.556,-0.157 -2.637,-0.114 -2.637,-0.114l0,0.114l-19.067,0l-7.747,-5.918c-1.04,-0.794 -2.105,-2.649 -2.256,-4.049l-1.897,-17.521c-0.119,-1.09 -1.12,-2.009 -2.228,-1.971l-0.654,0.022c-1.106,0.038 -1.976,0.967 -1.938,2.076l0.796,23.325c0.049,1.447 0.939,3.31 1.988,4.216l13.684,11.813Zm10.663,-14.531c5.609,0 10.155,-4.547 10.155,-10.156c0,-5.608 -4.546,-10.155 -10.155,-10.155c-5.609,0 -10.156,4.547 -10.156,10.155c0,5.609 4.547,10.156 10.156,10.156Z" style="fill:#4680c2;"/></g></g><g><path d="M332.937,85.001c0,-3.677 -2.982,-6.659 -6.659,-6.659c-16.522,0 -59.252,0 -75.774,0c-3.678,0 -6.659,2.982 -6.659,6.659c0,18.334 0,69.404 0,87.737c0,3.678 2.981,6.659 6.659,6.659c16.522,0 59.252,0 75.774,0c3.677,0 6.659,-2.981 6.659,-6.659c0,-18.333 0,-69.403 0,-87.737Z" style="fill:#4680c2;"/><path d="M326.264,90.691c0,-1.766 -0.702,-3.46 -1.95,-4.709c-1.249,-1.249 -2.943,-1.95 -4.709,-1.95c-14.355,0 -48.074,0 -62.428,0c-1.766,0 -3.46,0.701 -4.709,1.95c-1.249,1.249 -1.95,2.943 -1.95,4.709c0,16.613 0,59.745 0,76.358c0,1.766 0.701,3.46 1.95,4.709c1.249,1.248 2.943,1.95 4.709,1.95c14.354,0 48.073,0 62.428,0c1.766,0 3.46,-0.702 4.709,-1.95c1.248,-1.249 1.95,-2.943 1.95,-4.709c0,-16.613 0,-59.745 0,-76.358Z" style="fill:#fff;"/><clipPath id="_clip3"><path d="M326.264,90.691c0,-1.766 -0.702,-3.46 -1.95,-4.709c-1.249,-1.249 -2.943,-1.95 -4.709,-1.95c-14.355,0 -48.074,0 -62.428,0c-1.766,0 -3.46,0.701 -4.709,1.95c-1.249,1.249 -1.95,2.943 -1.95,4.709c0,16.613 0,59.745 0,76.358c0,1.766 0.701,3.46 1.95,4.709c1.249,1.248 2.943,1.95 4.709,1.95c14.354,0 48.073,0 62.428,0c1.766,0 3.46,-0.702 4.709,-1.95c1.248,-1.249 1.95,-2.943 1.95,-4.709c0,-16.613 0,-59.745 0,-76.358Z"/></clipPath><g clip-path="url(#_clip3)"><path id="Home" d="M319.219,148.483l0,-0.274c0,-1.287 1.027,-2.331 2.315,-2.331c1.279,0 2.316,1.031 2.316,2.331l0,4.4l3.773,3.361c1.323,1.179 0.957,2.134 -0.819,2.134l-2.954,0l0,18.251c0,0.893 -0.703,1.616 -1.617,1.616l-27.643,0c-0.893,0 -1.617,-0.72 -1.617,-1.616l0,-18.251l-2.969,0c-1.775,0 -2.142,-0.955 -0.818,-2.134l18.025,-16.059c0.659,-0.587 1.728,-0.587 2.386,0l9.622,8.572Zm-6.176,13.442l0,11.232l6.176,0l0,-11.232l-6.176,0Z" style="fill:#4680c2;"/><path id="Home1" serif:id="Home" d="M291.634,159.208l0,-0.193c0,-0.909 0.725,-1.645 1.634,-1.645c0.902,0 1.634,0.727 1.634,1.645l0,3.104l2.661,2.371c0.934,0.832 0.676,1.506 -0.577,1.506l-2.084,0l0,12.877c0,0.63 -0.496,1.14 -1.141,1.14l-19.504,0c-0.63,0 -1.14,-0.508 -1.14,-1.14l0,-12.877l-2.095,0c-1.252,0 -1.511,-0.673 -0.577,-1.506l12.717,-11.33c0.465,-0.414 1.219,-0.414 1.684,0l6.788,6.048Zm-4.357,9.484l0,7.925l4.357,0l0,-7.925l-4.357,0Z" style="fill:#4680c2;fill-opacity:0.4;"/><g><path id="Moon" d="M263.951,97.584c-3.619,1.51 -6.162,5.082 -6.162,9.248c0,5.533 4.485,10.018 10.017,10.018c4.167,0 7.739,-2.544 9.249,-6.163c-1.187,0.495 -2.489,0.769 -3.855,0.769c-5.532,0 -10.017,-4.485 -10.017,-10.018c0,-1.366 0.273,-2.668 0.768,-3.854Z" style="fill:#4680c2;"/><circle cx="292.5" cy="99.737" r="1.108" style="fill:#4680c2;"/><circle cx="272.784" cy="90.028" r="1.108" style="fill:#4680c2;"/><circle cx="272.226" cy="131.212" r="2.343" style="fill:#4680c2;"/><circle cx="313.974" cy="91.495" r="1.63" style="fill:#4680c2;"/><circle cx="320.318" cy="102.378" r="1.63" style="fill:#4680c2;"/><circle cx="260.177" cy="128.357" r="1.63" style="fill:#4680c2;"/></g></g></g><g><path d="M433.655,85.001c0,-3.677 -2.981,-6.659 -6.659,-6.659c-16.522,0 -59.251,0 -75.773,0c-3.678,0 -6.659,2.982 -6.659,6.659c0,18.334 0,69.404 0,87.737c0,3.678 2.981,6.659 6.659,6.659c16.522,0 59.251,0 75.773,0c3.678,0 6.659,-2.981 6.659,-6.659c0,-18.333 0,-69.403 0,-87.737Z" style="fill:#4680c2;"/><path d="M426.983,90.691c0,-1.766 -0.702,-3.46 -1.951,-4.709c-1.248,-1.249 -2.942,-1.95 -4.708,-1.95c-14.355,0 -48.074,0 -62.429,0c-1.766,0 -3.459,0.701 -4.708,1.95c-1.249,1.249 -1.951,2.943 -1.951,4.709c0,16.613 0,59.745 0,76.358c0,1.766 0.702,3.46 1.951,4.709c1.249,1.248 2.942,1.95 4.708,1.95c14.355,0 48.074,0 62.429,0c1.766,0 3.46,-0.702 4.708,-1.95c1.249,-1.249 1.951,-2.943 1.951,-4.709c0,-16.613 0,-59.745 0,-76.358Z" style="fill:#fff;"/><clipPath id="_clip4"><path d="M426.983,90.691c0,-1.766 -0.702,-3.46 -1.951,-4.709c-1.248,-1.249 -2.942,-1.95 -4.708,-1.95c-14.355,0 -48.074,0 -62.429,0c-1.766,0 -3.459,0.701 -4.708,1.95c-1.249,1.249 -1.951,2.943 -1.951,4.709c0,16.613 0,59.745 0,76.358c0,1.766 0.702,3.46 1.951,4.709c1.249,1.248 2.942,1.95 4.708,1.95c14.355,0 48.074,0 62.429,0c1.766,0 3.46,-0.702 4.708,-1.95c1.249,-1.249 1.951,-2.943 1.951,-4.709c0,-16.613 0,-59.745 0,-76.358Z"/></clipPath><g clip-path="url(#_clip4)"><path id="Hail1" serif:id="Hail" d="M373.366,156.431l0,28.848c0,3.108 -2.578,5.705 -5.759,5.705c-3.202,0 -5.758,-2.554 -5.758,-5.705l0,-28.848l0.073,0c0.125,-1.443 0.965,-8.772 5.562,-15.855c3.04,-4.683 9.116,-6.398 13.561,-7.017l0,-0.163l1.351,0c2.352,-0.237 3.987,-0.172 3.987,-0.172l0,0.172l26.004,0l0,-0.172c0,0 1.634,-0.065 3.986,0.172l1.352,0l0,0.163c4.445,0.619 10.521,2.334 13.56,7.017c4.597,7.083 5.438,14.412 5.562,15.855l0.074,0l0,28.848c0,3.151 -2.557,5.705 -5.759,5.705c-3.181,0 -5.759,-2.597 -5.759,-5.705l0,-28.848l0.098,0c-0.192,-0.525 -1.507,-3.878 -3.993,-3.878l-3.783,0l0,88.36c0,4.23 -3.409,7.659 -7.679,7.659c-0.361,0 -0.716,-0.025 -1.063,-0.073c-0.348,0.048 -0.703,0.073 -1.064,0.073c-4.27,0 -7.678,-3.429 -7.678,-7.659l0,-49.929l-1.712,0l0,49.929c0,4.23 -3.409,7.659 -7.679,7.659c-0.361,0 -0.716,-0.025 -1.063,-0.073c-0.348,0.048 -0.703,0.073 -1.064,0.073c-4.27,0 -7.678,-3.429 -7.678,-7.659l0,-88.36l-3.784,0c-2.486,0.001 -3.801,3.353 -3.992,3.878l0.097,0Zm26.019,-57.587l0.088,0c8.481,0 15.356,6.875 15.356,15.356c0,8.482 -6.875,15.357 -15.356,15.357l-0.088,0l-0.088,0c-8.482,0 -15.357,-6.875 -15.357,-15.357c0,-8.481 6.875,-15.356 15.357,-15.356l0.088,0Z" style="fill:#4680c2;"/></g></g><path id="Heart" d="M223.13,187.114c27.797,-18.315 9.064,-33.677 0,-23.633c-9.065,-10.044 -27.797,5.318 0,23.633Z" style="fill:#f55;"/><path id="Heart1" serif:id="Heart" d="M326.264,187.114c27.797,-18.315 9.064,-33.677 0,-23.633c-9.064,-10.044 -27.797,5.318 0,23.633Z" style="fill:#f55;"/><path id="Heart2" serif:id="Heart" d="M429.398,187.114c27.797,-18.315 9.065,-33.677 0,-23.633c-9.064,-10.044 -27.797,5.318 0,23.633Z" style="fill:#f55;"/></g></svg>