<?xml version="1.0" encoding="UTF-8" standalone="no"?><!DOCTYPE svg PUBLIC "-//W3C//DTD SVG 1.1//EN" "http://www.w3.org/Graphics/SVG/1.1/DTD/svg11.dtd"><svg width="100%" height="100%" viewBox="0 0 558 238" version="1.1" xmlns="http://www.w3.org/2000/svg" xmlns:xlink="http://www.w3.org/1999/xlink" xml:space="preserve" xmlns:serif="http://www.serif.com/" style="fill-rule:evenodd;clip-rule:evenodd;stroke-linecap:round;stroke-linejoin:round;stroke-miterlimit:1.5;"><path d="M461.693,33.75c0,-17.259 -13.991,-31.25 -31.25,-31.25c-73.878,0 -258.623,0 -332.5,0c-17.259,0 -31.25,13.991 -31.25,31.25c0,44.469 0,125.531 0,170c0,17.259 13.991,31.25 31.25,31.25c73.877,0 258.622,0 332.5,0c17.259,0 31.25,-13.991 31.25,-31.25c0,-44.469 0,-125.531 0,-170Z" style="fill:#fff;"/><clipPath id="_clip1"><path d="M461.693,33.75c0,-17.259 -13.991,-31.25 -31.25,-31.25c-73.878,0 -258.623,0 -332.5,0c-17.259,0 -31.25,13.991 -31.25,31.25c0,44.469 0,125.531 0,170c0,17.259 13.991,31.25 31.25,31.25c73.877,0 258.622,0 332.5,0c17.259,0 31.25,-13.991 31.25,-31.25c0,-44.469 0,-125.531 0,-170Z"/></clipPath><g clip-path="url(#_clip1)"><g><path d="M427.624,19.273c0.236,-0.236 0.556,-0.368 0.89,-0.368c0.333,0 0.653,0.132 0.889,0.368c0.836,0.836 1.958,1.958 1.958,1.958c0,0 1.122,-1.122 1.957,-1.958c0.236,-0.236 0.556,-0.368 0.89,-0.368c0.333,0 0.653,0.132 0.889,0.368c0.001,0 0.001,0.001 0.001,0.001c0.236,0.236 0.368,0.556 0.368,0.889c0,0.334 -0.132,0.654 -0.368,0.89c-0.835,0.835 -1.958,1.957 -1.958,1.957c0,0 1.123,1.123 1.958,1.958c0.236,0.236 0.368,0.556 0.368,0.889c0,0.334 -0.132,0.654 -0.368,0.89c0,0 0,0 -0.001,0.001c-0.236,0.235 -0.556,0.368 -0.889,0.368c-0.334,0 -0.654,-0.133 -0.89,-0.368c-0.835,-0.836 -1.957,-1.958 -1.957,-1.958c0,0 -1.122,1.122 -1.958,1.958c-0.236,0.235 -0.556,0.368 -0.889,0.368c-0.334,0 -0.654,-0.133 -0.89,-0.368c0,-0.001 0,-0.001 0,-0.001c-0.236,-0.236 -0.369,-0.556 -0.369,-0.89c0,-0.333 0.133,-0.653 0.369,-0.889c0.835,-0.835 1.957,-1.958 1.957,-1.958c0,0 -1.122,-1.122 -1.957,-1.957c-0.236,-0.236 -0.369,-0.556 -0.369,-0.89c0,-0.333 0.133,-0.653 0.369,-0.889c0,0 0,-0.001 0,-0.001Z" style="fill:#5181b8;"/><path d="M422.352,18.292c0.387,0 0.757,0.154 1.03,0.427c0.273,0.273 0.426,0.643 0.426,1.029l0,5.934c0,0.386 -0.153,0.757 -0.426,1.03c-0.273,0.273 -0.643,0.426 -1.03,0.426l-5.933,0c-0.387,0 -0.757,-0.153 -1.03,-0.426c-0.273,-0.273 -0.427,-0.644 -0.427,-1.03l0,-5.934c0,-0.386 0.154,-0.756 0.427,-1.029c0.273,-0.273 0.643,-0.427 1.03,-0.427l5.933,0Zm0.196,3.673c0,-0.804 -0.652,-1.456 -1.456,-1.456c-1.024,0 -2.389,0 -3.413,0c-0.804,0 -1.456,0.652 -1.456,1.456c0,0.763 0,1.694 0,2.456c0,0.805 0.652,1.457 1.456,1.457c1.024,0 2.389,0 3.413,0c0.804,0 1.456,-0.652 1.456,-1.457c0,-0.762 0,-1.693 0,-2.456Z" style="fill:#5181b8;"/><path d="M412.188,26.196c0,-0.52 -0.421,-0.941 -0.941,-0.941c-1.43,0 -4.135,0 -5.565,0c-0.52,0 -0.941,0.421 -0.941,0.941c0,0 0,0.001 0,0.001c0,0.52 0.421,0.941 0.941,0.941c1.43,0 4.135,0 5.565,0c0.52,0 0.941,-0.421 0.941,-0.941c0,0 0,-0.001 0,-0.001Z" style="fill:#5181b8;"/></g><g transform="matrix(0.934664,0.355532,-0.355532,0.934664,-14.6097,-70.8899)"><text x="365.567px" y="29.937px" style="font-family:'TTCommons-Medium', 'TT Commons';font-weight:500;font-size:62.259px;fill:#4680c2;fill-opacity:0.2;">10?</text></g><g transform="matrix(0.809346,-0.587332,0.587332,0.809346,-118.192,-57.5516)"><text x="114.148px" y="306.244px" style="font-family:'TTCommons-Medium', 'TT Commons';font-weight:500;font-size:90.586px;fill:#4680c2;fill-opacity:0.2;">15?</text></g><g transform="matrix(0.903471,-0.428649,0.428649,0.903471,-99.5444,-38.6681)"><text x="110.652px" y="345.534px" style="font-family:'TTCommons-Medium', 'TT Commons';font-weight:500;font-size:85.187px;fill:#4680c2;fill-opacity:0.2;">5?</text></g><g transform="matrix(0.865932,0.500161,-0.500161,0.865932,53.6159,-117.475)"><text x="383.145px" y="121.415px" style="font-family:'TTCommons-Medium', 'TT Commons';font-weight:500;font-size:47.459px;fill:#4680c2;fill-opacity:0.2;">1?</text></g></g><path d="M461.693,33.75c0,-17.259 -13.991,-31.25 -31.25,-31.25c-73.878,0 -258.623,0 -332.5,0c-17.259,0 -31.25,13.991 -31.25,31.25c0,44.469 0,125.531 0,170c0,17.259 13.991,31.25 31.25,31.25c73.877,0 258.622,0 332.5,0c17.259,0 31.25,-13.991 31.25,-31.25c0,-44.469 0,-125.531 0,-170Z" style="fill:none;stroke:#5181b8;stroke-width:5px;"/><path d="M109.6,232.816c-2.745,1.889 -11.47,1.622 -13.974,2.148c-2.504,0.525 -11.843,-4.758 -17.453,-7.875c-5.609,-3.118 -50.454,-19.048 -56.662,-23.829c-6.209,-4.781 -15.219,-10.933 -18.791,-15.159c-3.573,-4.226 -3.202,-7.116 -1.312,-7.921c1.89,-0.806 4.358,1.062 4.713,-0.444c0.356,-1.505 -4.223,-11.382 -2.963,-15.719c1.261,-4.336 2.63,-4.453 4.345,-4.319c1.716,0.135 3.483,1.127 3.431,0.269c-0.052,-0.858 -2.582,-11.096 1.219,-13.717c3.802,-2.621 5.687,0.835 5.917,3.257c0.231,2.423 -0.155,11.33 4.158,21.177c4.313,9.847 18.317,25.601 30.276,32.822c11.96,7.221 27.375,16.205 31.432,17.501c4.057,1.296 6.045,1.833 5.907,0.38c-0.138,-1.454 -5.801,-10.064 -9.769,-12.895c-3.968,-2.831 -15.284,-12.538 -21.8,-22.093c-6.516,-9.556 -16.083,-28.66 -21.034,-40.282c-4.952,-11.621 -2.4,-23.062 -1.329,-25.075c1.07,-2.014 4.903,-2.767 6.963,-0.251c2.059,2.516 3.511,5.125 5.247,4.249c1.737,-0.875 5.277,-12.42 8.222,-18.491c2.945,-6.07 6.762,-10.074 9.711,-9.006c2.949,1.069 3.96,13.857 3.766,25.076c-0.195,11.219 7.083,34.654 8.879,39.645c1.796,4.99 10.877,38.425 12.627,42.931c1.75,4.506 6.449,14.715 8.245,15.071c1.795,0.356 0.711,-3.011 -1.751,-13.775c-2.463,-10.763 -1.883,-10.221 -2.832,-14.639c-0.948,-4.419 -8.473,-38.664 -9.496,-42.68c-1.023,-4.016 -2.375,-16.682 -2.955,-21.86c-0.581,-5.177 -1.985,-18.701 -1.181,-20.744c0.804,-2.043 2.316,-4.967 4.707,-0.817c2.391,4.15 7.112,13.349 7.683,15.649c0.571,2.3 0.969,4.662 1.703,4.648c0.734,-0.013 1.405,-7.77 4.243,-8.792c2.839,-1.021 4.233,9.625 4.789,13.308c0.556,3.684 3.767,13.677 4.753,20.337c0.986,6.66 -3.14,42.592 -3.158,46.105c-0.018,3.514 -0.394,15.299 -0.114,16.075c0.279,0.777 2.347,-3.099 5.059,-9.461c2.711,-6.362 3.922,-13.688 3.987,-16.717c0.064,-3.029 3.748,-12.748 4.207,-21.806c0.459,-9.059 -1.149,-14.243 -1.147,-16.373c0.003,-2.131 2.822,-13.542 6.734,-14.073c3.913,-0.531 5.108,14.196 6.266,17.412c1.157,3.216 3.712,14.949 5.267,14.639c1.556,-0.309 5.584,-7.646 4.507,-10.64c-1.078,-2.995 3.418,-5.113 6.855,0.164c3.438,5.276 -4.56,25.816 -8.235,29.143c-3.676,3.327 -13.835,12.87 -15.207,15.117c-1.371,2.247 -9.891,14.207 -11.711,16.991c-1.819,2.784 -0.271,13.501 -2.944,15.339" style="fill:#5181b8;fill-rule:nonzero;"/><path d="M545.943,176.513c-4.043,1.274 -6.735,-0.393 -5.524,-1.338c1.21,-0.945 10.869,-7.495 13.468,-11.558c2.599,-4.063 5.687,-7.379 2.579,-7.936c-3.108,-0.557 -6.735,-0.394 -11.477,2.024c-4.743,2.418 -14.128,5.893 -20.625,8.774c-6.498,2.88 -14.224,6.794 -19.658,9.436c-5.434,2.642 -9.649,1.209 -8.295,0.018c1.354,-1.191 14.598,-11.23 21.983,-16.597c7.385,-5.366 12.446,-20.338 14.145,-26.708c1.65,-6.185 4.003,-10.321 7.851,-17.031c0.116,-0.201 0.228,-0.397 0.346,-0.603c4.057,-7.075 2.288,-6.984 0.033,-8.099c-2.254,-1.116 -10.479,7.391 -13.201,7.191c-2.722,-0.2 -0.553,-5.734 -0.138,-10.806c0.414,-5.073 -4.779,-5.789 -6.228,-5.907c-1.449,-0.119 -7.956,5.892 -10.054,9.323c-0.431,0.705 -1.038,1.712 -1.732,2.895c-2.684,4.567 -6.755,11.888 -7.801,15.841c-1.315,4.976 -8.528,25.394 -9.051,26.575c-0.522,1.181 -7.74,18.097 -13.469,28.324c-5.728,10.226 -11.437,9.771 -12.367,8.932c-0.93,-0.839 4.901,-10.676 7.858,-17.336c2.957,-6.66 7.428,-24.979 7.849,-28.76c0.421,-3.781 3.576,-14.914 7.128,-20.897c3.553,-5.983 -5.532,-6.591 -7.424,-4.59c-1.892,2 -5.436,7.063 -7.9,5.627c-2.464,-1.436 -1.435,-5.919 -2.095,-8.82c-0.659,-2.902 -3.137,-10.236 -6.409,-14.42c-3.272,-4.184 -6.488,-0.25 -9.745,2.11c-3.256,2.36 -4.215,6.95 -4.114,11.761c0.1,4.812 8.54,16.892 9.142,18.86c0.602,1.968 1.673,23.748 1.815,25.712c0.143,1.964 -9.444,29.553 -8.713,34.66c1.591,11.106 -16.552,44.863 -17.694,40.615c0,0 2.398,0.869 4.248,-0.495c1.851,-1.363 9.674,-0.006 15.055,1.578c5.38,1.585 8.462,-3.023 12.551,-1.432c4.09,1.591 13.473,-5.845 15.953,-8.459c2.481,-2.614 -5.946,-3.729 -11.804,-5.229c-5.859,-1.5 -12.143,1.241 -16.554,2.07c-4.411,0.829 -6.893,-0.519 -3.897,-3.394c2.996,-2.874 15.209,-6.219 18.343,-6.67c3.134,-0.451 23.634,5.489 29.526,7.272c5.892,1.783 14.36,0.051 18.783,-2.157c4.422,-2.209 6.547,-6.647 3.909,-6.369c-2.637,0.278 -8.128,-0.777 -8.757,-1.737c-0.628,-0.96 3.031,-0.841 6.188,-1.84c3.156,-0.999 8.99,-6.874 8.99,-6.874c0,0 -7.807,-5.407 -16.455,-5.463c-8.647,-0.056 -22.283,8.335 -29.475,9.689c-7.192,1.353 -11.528,-0.381 -11.865,-2.294c-0.338,-1.913 13.425,-6.5 17.109,-9.139c3.683,-2.64 18.202,-4.674 22.451,-5.168c4.249,-0.495 27.191,5.218 29.398,5.679c2.207,0.461 11.332,-5.74 12.745,-7.655c1.414,-1.916 3.918,-7.289 3.518,-10.228c-0.399,-2.939 -6.4,-0.231 -10.443,1.043" style="fill:#5181b8;fill-rule:nonzero;"/><path d="M272.541,62.06c-5.536,-0.81 -11.16,-0.81 -16.696,0l-6.382,12.283c-2.234,0.735 -4.41,1.636 -6.51,2.696l-13.197,-4.172c-4.488,3.341 -8.465,7.318 -11.806,11.805l4.172,13.198c-1.06,2.1 -1.961,4.276 -2.696,6.51l-12.283,6.382c-0.81,5.535 -0.81,11.16 0,16.696l12.283,6.381c0.735,2.235 1.636,4.41 2.696,6.51l-4.172,13.198c3.341,4.487 7.318,8.464 11.806,11.806l13.197,-4.173c2.1,1.06 4.276,1.961 6.51,2.696l6.382,12.283c5.536,0.81 11.16,0.81 16.696,0l6.382,-12.283c2.234,-0.735 4.41,-1.636 6.509,-2.696l13.198,4.173c4.487,-3.342 8.464,-7.319 11.806,-11.806l-4.173,-13.198c1.06,-2.1 1.962,-4.275 2.697,-6.51l12.282,-6.381c0.81,-5.536 0.81,-11.161 0,-16.696l-12.282,-6.382c-0.735,-2.234 -1.637,-4.41 -2.697,-6.51l4.173,-13.198c-3.342,-4.487 -7.319,-8.464 -11.806,-11.805l-13.198,4.172c-2.099,-1.06 -4.275,-1.961 -6.509,-2.696l-6.382,-12.283Zm-8.348,19.321c20.823,0 37.729,16.905 37.729,37.729c0,20.823 -16.906,37.729 -37.729,37.729c-20.823,0 -37.729,-16.906 -37.729,-37.729c0,-20.824 16.906,-37.729 37.729,-37.729Z" style="fill:#5181b8;"/><path id="Search" d="M271.232,129.403c-3.103,2.308 -6.95,3.675 -11.116,3.675c-10.292,0 -18.635,-8.339 -18.635,-18.624c0,-10.286 8.343,-18.624 18.635,-18.624c10.292,0 18.636,8.338 18.636,18.624c0,4.444 -1.558,8.525 -4.158,11.726l11.67,12.278c0.886,0.932 0.848,2.406 -0.084,3.291c-0.933,0.886 -2.407,0.848 -3.294,-0.084l-11.654,-12.262Zm-11.116,-0.981c-7.719,0 -13.976,-6.254 -13.976,-13.968c0,-7.715 6.257,-13.968 13.976,-13.968c7.719,0 13.977,6.253 13.977,13.968c0,7.714 -6.258,13.968 -13.977,13.968Z" style="fill:#5181b8;"/></svg>