<?xml version="1.0" encoding="UTF-8" standalone="no"?><!DOCTYPE svg PUBLIC "-//W3C//DTD SVG 1.1//EN" "http://www.w3.org/Graphics/SVG/1.1/DTD/svg11.dtd"><svg width="100%" height="100%" viewBox="0 0 537 274" version="1.1" xmlns="http://www.w3.org/2000/svg" xmlns:xlink="http://www.w3.org/1999/xlink" xml:space="preserve" xmlns:serif="http://www.serif.com/" style="fill-rule:evenodd;clip-rule:evenodd;stroke-linecap:round;stroke-linejoin:round;stroke-miterlimit:1.5;"><path d="M480.61,33.75c0,-17.259 -13.991,-31.25 -31.25,-31.25c-73.877,0 -258.622,0 -332.5,0c-17.259,0 -31.25,13.991 -31.25,31.25c0,44.469 0,125.531 0,170c0,17.259 13.991,31.25 31.25,31.25c73.878,0 258.623,0 332.5,0c17.259,0 31.25,-13.991 31.25,-31.25c0,-44.469 0,-125.531 0,-170Z" style="fill:#fff;"/><clipPath id="_clip1"><path d="M480.61,33.75c0,-17.259 -13.991,-31.25 -31.25,-31.25c-73.877,0 -258.622,0 -332.5,0c-17.259,0 -31.25,13.991 -31.25,31.25c0,44.469 0,125.531 0,170c0,17.259 13.991,31.25 31.25,31.25c73.878,0 258.623,0 332.5,0c17.259,0 31.25,-13.991 31.25,-31.25c0,-44.469 0,-125.531 0,-170Z"/></clipPath><g clip-path="url(#_clip1)"><text x="127.854px" y="83.543px" style="font-family:'TTCommons-Medium', 'TT Commons';font-weight:500;font-size:69.033px;fill:#4680c2;fill-opacity:0.2;">ctrl+c</text><text x="276.175px" y="190.75px" style="font-family:'TTCommons-Medium', 'TT Commons';font-weight:500;font-size:70.152px;fill:#4680c2;fill-opacity:0.2;">ctrl+v</text><path d="M433.949,116.561c0,-11.427 -9.263,-20.69 -20.69,-20.69c-55.436,0 -206.852,0 -262.288,0c-11.426,0 -20.69,9.263 -20.69,20.69c0,0.001 0,0.002 0,0.004c0,11.426 9.264,20.69 20.69,20.69c55.436,0 206.852,0 262.288,0c11.427,0 20.69,-9.264 20.69,-20.69c0,-0.002 0,-0.003 0,-0.004Z" style="fill:#fff;"/><clipPath id="_clip2"><path d="M433.949,116.561c0,-11.427 -9.263,-20.69 -20.69,-20.69c-55.436,0 -206.852,0 -262.288,0c-11.426,0 -20.69,9.263 -20.69,20.69c0,0.001 0,0.002 0,0.004c0,11.426 9.264,20.69 20.69,20.69c55.436,0 206.852,0 262.288,0c11.427,0 20.69,-9.264 20.69,-20.69c0,-0.002 0,-0.003 0,-0.004Z"/></clipPath><g clip-path="url(#_clip2)"><text x="150.522px" y="124.162px" style="font-family:'TTCommons-Medium', 'TT Commons';font-weight:500;font-size:26.591px;fill:#4680c2;">vk.com/pr<tspan x="255.392px " y="124.162px ">o</tspan>ï¬le_id</text></g><path d="M433.949,116.561c0,-11.427 -9.263,-20.69 -20.69,-20.69c-55.436,0 -206.852,0 -262.288,0c-11.426,0 -20.69,9.263 -20.69,20.69c0,0.001 0,0.002 0,0.004c0,11.426 9.264,20.69 20.69,20.69c55.436,0 206.852,0 262.288,0c11.427,0 20.69,-9.264 20.69,-20.69c0,-0.002 0,-0.003 0,-0.004Z" style="fill:none;stroke:#d4e7fd;stroke-width:5px;"/></g><path d="M480.61,33.75c0,-17.259 -13.991,-31.25 -31.25,-31.25c-73.877,0 -258.622,0 -332.5,0c-17.259,0 -31.25,13.991 -31.25,31.25c0,44.469 0,125.531 0,170c0,17.259 13.991,31.25 31.25,31.25c73.878,0 258.623,0 332.5,0c17.259,0 31.25,-13.991 31.25,-31.25c0,-44.469 0,-125.531 0,-170Z" style="fill:none;stroke:#5181b8;stroke-width:5px;"/><path d="M98.472,273.344l-4.852,-1.931c0,0 -38.659,-19.557 -48.112,-20.268c-9.453,-0.712 -27,-6.676 -31.184,-10.712c-4.185,-4.036 -8.39,-12.032 -5.193,-14.487c3.198,-2.454 5.269,-3.325 15.635,2.719c10.365,6.043 18.49,6.678 22.866,1.982c4.376,-4.696 -1.463,-13.116 -8.536,-16.495c-7.074,-3.378 -27.049,-6.633 -33.771,-15.21c-6.722,-8.577 -6.189,-23.723 -3.269,-28.997c2.92,-5.275 6.147,-10.203 10.739,-4.988c4.592,5.215 21.15,23.658 23.397,24.778c2.247,1.12 6.877,-2.572 5.43,-9.584c-1.446,-7.012 -5.925,-18.899 -15.321,-33.506c-9.396,-14.608 -17.607,-26.795 -17.022,-42.597c0.584,-15.803 0.648,-25.037 8.395,-28.053c7.747,-3.016 11.771,24.105 12.732,30.924c0.962,6.819 3.458,30.058 8.807,42.575c5.348,12.516 8.588,15.838 10.506,14.794c1.918,-1.043 5.284,-14.046 4.078,-28.302c-1.207,-14.257 -2.191,-22.892 5.874,-34.137c8.065,-11.246 21.106,-17.915 21.968,4.899c0.862,22.815 -13.737,49.908 -15.799,60.812c-2.061,10.903 -5.404,25.722 -2.496,29.024c2.908,3.303 5.179,6.238 14.604,-9.548c9.426,-15.786 22.376,-48.689 31.77,-59.858c9.393,-11.169 12.588,-11.479 13.506,-10.436c0.919,1.043 8.635,19.47 -5.782,41.401c-14.417,21.931 -33.601,53.484 -36.16,56.305c-2.559,2.821 9.011,6.295 14.667,0.188c5.656,-6.106 18.908,-17.547 26.73,-19.404c7.821,-1.857 13.058,-0.564 13.058,-0.564c0,0 5.432,7.242 -4.205,27.8c-9.636,20.558 -33.06,50.876 -33.06,50.876" style="fill:#5181b8;fill-rule:nonzero;"/><path d="M445.669,273.344c0,0 -14.284,-20.33 -18.796,-30.51c-4.512,-10.179 0.557,-11.998 5.646,-9.197c5.09,2.801 17.759,4.629 14.613,-1.154c-3.146,-5.783 -8.013,-13.383 -8.647,-18.32c-0.634,-4.938 2.751,-13.621 5.27,-11.236c2.518,2.385 0.056,12.316 3.38,16.809c3.323,4.493 5.645,5.48 7.171,-2.601c1.526,-8.08 -0.104,-17.424 11.693,-32.075c11.797,-14.652 31.463,-47.736 36.399,-51.773c4.935,-4.037 14.74,-13.221 19.172,-7.23c4.431,5.99 -12.556,22.805 -18.084,31.142c-5.528,8.337 -23.536,29.381 -30.815,42.49c-7.28,13.108 -8.123,16.049 -6.896,16.687c1.226,0.637 26.511,-20.769 33.338,-25.819c6.827,-5.051 29.835,-16.276 35.701,-17.526c5.866,-1.25 -0.727,14.827 -15.113,25.468c-14.386,10.642 -41.953,27.944 -47.672,34.491c-5.72,6.548 -10.767,12.985 -4.96,12.165c5.807,-0.819 19.173,-7.23 28.585,-8.786c9.412,-1.555 16.483,-6.786 21.542,2.603c5.059,9.389 -14.441,25.357 -25.198,27.135c-10.756,1.778 -32.772,2.615 -36.437,3.781c-3.664,1.166 -9.892,3.456 -9.892,3.456" style="fill:#5181b8;fill-rule:nonzero;"/><g><path d="M451.79,15.096c0.236,-0.236 0.556,-0.369 0.889,-0.369c0.334,0 0.654,0.133 0.89,0.369c0.835,0.835 1.957,1.957 1.957,1.957c0,0 1.122,-1.122 1.958,-1.957c0.236,-0.236 0.556,-0.369 0.889,-0.369c0.334,0 0.654,0.133 0.89,0.369c0,0 0,0 0,0c0.236,0.236 0.369,0.556 0.369,0.89c0,0.333 -0.133,0.653 -0.369,0.889c-0.835,0.836 -1.957,1.958 -1.957,1.958c0,0 1.122,1.122 1.957,1.957c0.236,0.236 0.369,0.556 0.369,0.89c0,0.333 -0.133,0.653 -0.369,0.889c0,0.001 0,0.001 0,0.001c-0.236,0.236 -0.556,0.368 -0.89,0.368c-0.333,0 -0.653,-0.132 -0.889,-0.368c-0.836,-0.835 -1.958,-1.958 -1.958,-1.958c0,0 -1.122,1.123 -1.957,1.958c-0.236,0.236 -0.556,0.368 -0.89,0.368c-0.333,0 -0.653,-0.132 -0.889,-0.368c-0.001,0 -0.001,0 -0.001,-0.001c-0.236,-0.236 -0.368,-0.556 -0.368,-0.889c0,-0.334 0.132,-0.654 0.368,-0.89c0.835,-0.835 1.958,-1.957 1.958,-1.957c0,0 -1.123,-1.122 -1.958,-1.958c-0.236,-0.236 -0.368,-0.556 -0.368,-0.889c0,-0.334 0.132,-0.654 0.368,-0.89c0,0 0,0 0.001,0Z" style="fill:#5181b8;"/><path d="M446.518,14.115c0.386,0 0.756,0.153 1.029,0.426c0.274,0.273 0.427,0.643 0.427,1.03l0,5.933c0,0.387 -0.153,0.757 -0.427,1.03c-0.273,0.273 -0.643,0.427 -1.029,0.427l-5.934,0c-0.386,0 -0.757,-0.154 -1.03,-0.427c-0.273,-0.273 -0.426,-0.643 -0.426,-1.03l0,-5.933c0,-0.387 0.153,-0.757 0.426,-1.03c0.273,-0.273 0.644,-0.426 1.03,-0.426l5.934,0Zm0.195,3.673c0,-0.805 -0.652,-1.457 -1.456,-1.457c-1.024,0 -2.388,0 -3.412,0c-0.805,0 -1.457,0.652 -1.457,1.457c0,0.762 0,1.693 0,2.456c0,0.804 0.652,1.456 1.457,1.456c1.024,0 2.388,0 3.412,0c0.804,0 1.456,-0.652 1.456,-1.456c0,-0.763 0,-1.694 0,-2.456Z" style="fill:#5181b8;"/><path d="M436.354,22.018c0,-0.52 -0.421,-0.941 -0.941,-0.941c-1.43,0 -4.136,0 -5.566,0c-0.52,0 -0.941,0.421 -0.941,0.941c0,0.001 0,0.001 0,0.002c0,0.519 0.421,0.941 0.941,0.941c1.43,0 4.136,0 5.566,0c0.52,0 0.941,-0.422 0.941,-0.941c0,-0.001 0,-0.001 0,-0.002Z" style="fill:#5181b8;"/></g><path d="M251.397,159.188l-9.005,-5.924l-5.186,7.884l-3.879,-2.552l5.186,-7.884l-9.004,-5.924l25.343,-14.689l-3.455,29.089Z" style="fill:#5181b8;"/><rect x="328.247" y="104.441" width="1.491" height="24.243" style="fill-opacity:0.2;"/></svg>